<svg width="197" height="65" viewBox="0 0 197 65" fill="none" xmlns="http://www.w3.org/2000/svg">
<path d="M32.559 42.0638C32.559 45.6383 30.471 48.5352 26.8966 48.5352H13.5494C9.97497 48.5352 7.88695 45.6383 7.88695 42.0638M33.9746 33.9746C35.7613 33.9746 37.2103 35.7856 37.2103 38.0192C37.2103 40.2529 35.7613 42.0638 33.9746 42.0638H6.47134C4.68463 42.0638 3.23566 40.2529 3.23566 38.0192C3.23566 35.7856 4.68463 33.9746 6.47134 33.9746" fill="#52D449"/>
<path d="M32.559 42.0638C32.559 45.6383 30.471 48.5352 26.8966 48.5352H13.5494C9.97497 48.5352 7.88695 45.6383 7.88695 42.0638M33.9746 33.9746C35.7613 33.9746 37.2103 35.7856 37.2103 38.0192C37.2103 40.2529 35.7613 42.0638 33.9746 42.0638H6.47134C4.68463 42.0638 3.23566 40.2529 3.23566 38.0192C3.23566 35.7856 4.68463 33.9746 6.47134 33.9746" stroke="#2FC424" stroke-miterlimit="10" stroke-linecap="round"/>
<path d="M34.7835 33.9746H18.1309C17.9167 33.9747 17.7112 34.0598 17.5596 34.2112L14.8467 36.9242C14.8091 36.9618 14.7645 36.9916 14.7154 37.0119C14.6663 37.0323 14.6137 37.0428 14.5605 37.0428C14.5074 37.0428 14.4548 37.0323 14.4057 37.0119C14.3566 36.9916 14.3119 36.9618 14.2744 36.9242L11.5615 34.2112C11.4099 34.0598 11.2044 33.9747 10.9902 33.9746H5.66242C5.0188 33.9746 4.40154 33.719 3.94644 33.2638C3.49133 32.8087 3.23566 32.1915 3.23566 31.5479C3.23566 30.9043 3.49133 30.287 3.94644 29.8319C4.40154 29.3768 5.0188 29.1211 5.66242 29.1211H34.7835C35.4272 29.1211 36.0444 29.3768 36.4995 29.8319C36.9546 30.287 37.2103 30.9043 37.2103 31.5479C37.2103 32.1915 36.9546 32.8087 36.4995 33.2638C36.0444 33.719 35.4272 33.9746 34.7835 33.9746ZM6.47134 27.9077V27.8855C6.47134 22.3242 11.0215 19.4141 16.5828 19.4141H23.8631C29.4244 19.4141 33.9746 22.3464 33.9746 27.9077V27.8855M24.3687 11.3249L25.121 17.7932L24.3687 11.3249Z" fill="#FFEE06" fill-opacity="0.69"/>
<path d="M6.47134 27.9077V27.8855C6.47134 22.3242 11.0215 19.4141 16.5828 19.4141H23.8631C29.4244 19.4141 33.9746 22.3464 33.9746 27.9077V27.8855M24.3687 11.3249L25.121 17.7932M34.7835 33.9746H18.1309C17.9167 33.9747 17.7112 34.0598 17.5596 34.2112L14.8467 36.9242C14.8091 36.9618 14.7645 36.9916 14.7154 37.0119C14.6663 37.0323 14.6137 37.0428 14.5605 37.0428C14.5074 37.0428 14.4548 37.0323 14.4057 37.0119C14.3566 36.9916 14.3119 36.9618 14.2744 36.9242L11.5615 34.2112C11.4099 34.0598 11.2044 33.9747 10.9902 33.9746H5.66242C5.0188 33.9746 4.40154 33.719 3.94644 33.2638C3.49133 32.8087 3.23566 32.1915 3.23566 31.5479C3.23566 30.9043 3.49133 30.287 3.94644 29.8319C4.40154 29.3768 5.0188 29.1211 5.66242 29.1211H34.7835C35.4272 29.1211 36.0444 29.3768 36.4995 29.8319C36.9546 30.287 37.2103 30.9043 37.2103 31.5479C37.2103 32.1915 36.9546 32.8087 36.4995 33.2638C36.0444 33.719 35.4272 33.9746 34.7835 33.9746Z" stroke="#2FC424" stroke-miterlimit="10" stroke-linecap="round"/>
<path d="M25.8854 48.5352H39.9718C40.7881 48.5352 41.5742 48.2266 42.1726 47.6714C42.771 47.1161 43.1374 46.3552 43.1983 45.5412L46.8162 11.3249" stroke="#2FC424" stroke-miterlimit="10" stroke-linecap="round"/>
<path d="M37.2103 11.3249L38.8282 4.85353L43.5806 3.23569" stroke="#2FC424" stroke-linecap="round" stroke-linejoin="round"/>
<path d="M22.6498 11.3249H48.5352" stroke="#2FC424" stroke-miterlimit="10" stroke-linecap="round"/>
<path d="M54.7961 45.4839V41.2489H61.0611C62.6477 41.2489 64.0361 40.9222 65.2261 40.2689C66.4161 39.5922 67.3377 38.6472 67.9911 37.4339C68.6677 36.2205 69.0061 34.7855 69.0061 33.1289C69.0061 31.5189 68.6677 30.1189 67.9911 28.9289C67.3144 27.7155 66.3811 26.7822 65.1911 26.1289C64.0011 25.4522 62.6244 25.1139 61.0611 25.1139H54.6911V20.8789H61.1311C62.9511 20.8789 64.6311 21.1822 66.1711 21.7889C67.7344 22.3955 69.0877 23.2589 70.2311 24.3789C71.3977 25.4755 72.2961 26.7705 72.9261 28.2639C73.5794 29.7572 73.9061 31.3905 73.9061 33.1639C73.9061 34.9372 73.5794 36.5822 72.9261 38.0989C72.2961 39.5922 71.4094 40.8989 70.2661 42.0189C69.1227 43.1155 67.7694 43.9672 66.2061 44.5739C64.6661 45.1805 62.9977 45.4839 61.2011 45.4839H54.7961ZM51.5411 45.4839V20.8789H56.3011V45.4839H51.5411Z" fill="#36AF2E"/>
<path d="M77.3385 45.4839V28.6839H81.1885V45.4839H77.3385ZM79.2635 25.6039C78.6102 25.6039 78.0619 25.3822 77.6185 24.9389C77.1985 24.4955 76.9885 23.9472 76.9885 23.2939C76.9885 22.6405 77.1985 22.0922 77.6185 21.6489C78.0619 21.2055 78.6102 20.9839 79.2635 20.9839C79.9402 20.9839 80.4885 21.2055 80.9085 21.6489C81.3285 22.0922 81.5385 22.6405 81.5385 23.2939C81.5385 23.9472 81.3285 24.4955 80.9085 24.9389C80.4885 25.3822 79.9402 25.6039 79.2635 25.6039ZM97.0216 45.4839V35.7889C97.0216 34.6689 96.66 33.7472 95.9366 33.0239C95.2366 32.3005 94.3266 31.9389 93.2066 31.9389C92.46 31.9389 91.795 32.1022 91.2116 32.4289C90.6283 32.7555 90.1733 33.2105 89.8466 33.7939C89.52 34.3772 89.3566 35.0422 89.3566 35.7889L87.8516 34.9489C87.8516 33.6655 88.1316 32.5339 88.6916 31.5539C89.2516 30.5505 90.0216 29.7689 91.0016 29.2089C92.005 28.6255 93.125 28.3339 94.3616 28.3339C95.6216 28.3339 96.7416 28.6605 97.7216 29.3139C98.7016 29.9439 99.4716 30.7722 100.032 31.7989C100.592 32.8022 100.872 33.8522 100.872 34.9489V45.4839H97.0216ZM85.5066 45.4839V28.6839H89.3566V45.4839H85.5066ZM112.589 45.8339C110.909 45.8339 109.392 45.4605 108.039 44.7139C106.709 43.9439 105.647 42.8939 104.854 41.5639C104.084 40.2339 103.699 38.7405 103.699 37.0839C103.699 35.4272 104.084 33.9455 104.854 32.6389C105.624 31.3089 106.662 30.2589 107.969 29.4889C109.299 28.7189 110.769 28.3339 112.379 28.3339C113.942 28.3339 115.319 28.6955 116.509 29.4189C117.722 30.1422 118.667 31.1339 119.344 32.3939C120.044 33.6539 120.394 35.0889 120.394 36.6989C120.394 36.9789 120.371 37.2705 120.324 37.5739C120.301 37.8539 120.254 38.1689 120.184 38.5189H106.394V35.3689H118.189L116.754 36.6289C116.707 35.6022 116.509 34.7389 116.159 34.0389C115.809 33.3389 115.307 32.8022 114.654 32.4289C114.024 32.0555 113.242 31.8689 112.309 31.8689C111.329 31.8689 110.477 32.0789 109.754 32.4989C109.031 32.9189 108.471 33.5139 108.074 34.2839C107.677 35.0305 107.479 35.9289 107.479 36.9789C107.479 38.0289 107.689 38.9505 108.109 39.7439C108.529 40.5372 109.124 41.1555 109.894 41.5989C110.664 42.0189 111.551 42.2289 112.554 42.2289C113.417 42.2289 114.211 42.0772 114.934 41.7739C115.681 41.4705 116.311 41.0272 116.824 40.4439L119.274 42.9289C118.457 43.8855 117.466 44.6089 116.299 45.0989C115.132 45.5889 113.896 45.8339 112.589 45.8339ZM123.48 45.4839V20.2839H127.33V45.4839H123.48ZM137.04 45.6589L129.865 28.6839H134.1L139 41.1439H137.775L142.955 28.6839H147.225L139.42 45.6589H137.04ZM132.035 52.4839L137.25 41.7389L139.42 45.6589L136.305 52.4839H132.035Z" fill="black"/>
</svg>
